<svg width="24" height="24" viewBox="0 0 24 24" fill="none" xmlns="http://www.w3.org/2000/svg">
<path d="M11.1238 7.2567C11.2067 7.233 11.2928 7.22428 11.3784 7.23092H12.7786C12.8261 7.22568 12.8741 7.23046 12.9197 7.24499C12.9654 7.25952 13.0077 7.28348 13.0443 7.31546C13.0808 7.34743 13.1108 7.38676 13.1324 7.43109C13.1541 7.47541 13.1669 7.52382 13.1701 7.57343V11.7061C13.1638 11.8952 13.1194 12.0807 13.0396 12.2506C12.8452 12.7426 12.6063 13.2131 12.3702 13.6848C12.3008 13.8471 12.205 13.9957 12.087 14.1239C11.9239 14.1511 11.8586 13.9594 11.7856 13.8453C11.458 13.1873 11.0848 12.5402 10.8956 11.8211C10.8825 10.425 10.8956 9.02754 10.8956 7.62995C10.8896 7.55045 10.9087 7.47109 10.9499 7.40389C10.9911 7.33669 11.0523 7.2853 11.124 7.2575L11.1238 7.2567ZM11.1643 11.6911C11.1904 12.069 11.3992 12.3939 11.531 12.7378L11.6386 12.7787C11.893 12.7544 12.149 12.7544 12.4034 12.7787L12.5196 12.742C12.6863 12.408 12.8176 12.0561 12.9111 11.6925C12.3296 11.6844 11.7476 11.6911 11.1643 11.6911Z" fill="white"/>
<path d="M10.3329 13.8241C10.3534 13.7494 10.39 13.6805 10.4399 13.6227C10.4897 13.5648 10.5516 13.5196 10.6207 13.4903C10.6898 13.4611 10.7645 13.4486 10.8389 13.4538C10.9134 13.459 10.9857 13.4818 11.0504 13.5205C11.1152 13.5591 11.1706 13.6126 11.2126 13.6769C11.2546 13.7412 11.2819 13.8146 11.2926 13.8915C11.3033 13.9684 11.2971 14.0469 11.2744 14.1209C11.2517 14.195 11.2131 14.2627 11.1616 14.3189C11.0535 14.4199 10.9151 14.4785 10.7701 14.4848C10.7156 14.5941 10.6719 14.7088 10.6396 14.8273C10.8321 14.9038 11.0074 15.0208 11.1547 15.1709C11.302 15.3211 11.418 15.5011 11.4956 15.7C11.6261 15.666 11.7476 15.6239 11.8715 15.5789C11.9447 15.2402 12.0827 14.9202 12.2774 14.6383C12.472 14.3564 12.7192 14.1182 13.0042 13.9381C13.346 13.7246 13.7313 13.5982 14.1289 13.5694C14.5265 13.5406 14.9249 13.6101 15.2918 13.7722C15.5423 13.8908 15.7773 14.042 15.9912 14.2222C15.8078 15.0623 15.37 15.8186 14.7423 16.3796V14.4548C14.4461 14.4548 14.1394 14.4127 13.8536 14.512C13.62 14.5841 13.3851 14.6547 13.149 14.7173C13.1797 14.962 13.2481 15.1999 13.3016 15.4406C13.4891 15.4053 13.6747 15.3599 13.8576 15.3046V16.9972C13.3204 17.2923 12.724 17.4514 12.1168 17.4615C11.8495 16.9449 11.7458 16.3534 11.8206 15.7717L11.5427 15.8614C11.6093 16.1219 11.6148 16.3952 11.5586 16.6584C11.5024 16.9215 11.3862 17.1667 11.2199 17.3732C10.1888 17.1695 9.2774 16.5481 8.68553 15.6454L8.86046 15.3314L8.65432 15.1194L8.44481 15.2393C8.20037 14.8058 8.04404 14.3246 7.9855 13.8255C8.11513 13.7775 8.25486 13.767 8.38977 13.7952C8.52468 13.8234 8.6497 13.8892 8.75147 13.9857C8.84186 14.0817 8.90617 14.201 8.93782 14.3314C8.96947 14.4618 8.96733 14.5986 8.93163 14.7279C8.90288 14.8366 8.81281 14.9277 8.81158 15.0433C8.856 15.1045 8.90811 15.1602 8.95776 15.2174C9.1515 15.013 9.39206 14.8634 9.65672 14.7828C9.92137 14.7021 10.2014 14.6931 10.4703 14.7565L10.6008 14.4363C10.4954 14.3819 10.4112 14.2913 10.3624 14.1798C10.3136 14.0683 10.3032 13.9427 10.3329 13.8241Z" fill="white"/>
<path d="M11.5233 0.0190551C11.6616 0.0123298 11.8 0 11.9383 0C11.7569 0.347956 11.5694 0.69463 11.4046 1.05347C11.403 1.27514 11.4192 1.49656 11.4529 1.71544L11.0809 1.74394C11.0391 1.47173 11.1135 1.14443 10.9138 0.928255C10.7246 0.661804 10.5315 0.39135 10.333 0.127621L10.7507 0.0786223C10.9086 0.278461 11.0248 0.512246 11.2009 0.695751C11.3027 0.46757 11.4123 0.241952 11.5233 0.0190551Z" fill="white"/>
<path d="M12.3336 0C12.7368 0.0299437 13.1401 0.070616 13.5446 0.0960761C13.5446 0.208165 13.5446 0.323136 13.5367 0.437306C13.251 0.437306 12.968 0.367972 12.6833 0.384304C12.6612 0.483583 12.6507 0.585424 12.6372 0.686144C12.8903 0.718169 13.1444 0.739146 13.3993 0.752756C13.3915 0.864845 13.3824 0.979816 13.3758 1.09255C13.1278 1.07493 12.8825 1.05315 12.6358 1.03138C12.6204 1.1401 12.6032 1.24883 12.5875 1.359C12.8759 1.40703 13.1683 1.41344 13.458 1.4365C13.452 1.55254 13.4441 1.66852 13.4345 1.78445C13.0273 1.7409 12.6198 1.70967 12.2131 1.68117C12.2461 1.12425 12.3088 0.565568 12.3336 0Z" fill="white"/>
<path d="M9.37905 0.318014C9.50831 0.293749 9.64124 0.301529 9.76707 0.340726C9.89291 0.379923 10.0081 0.449434 10.1034 0.543633C10.2636 0.709232 10.3548 0.933998 10.357 1.16915C10.3591 1.4043 10.2722 1.63086 10.115 1.79967C9.9499 1.96403 9.73089 2.05676 9.50249 2.05902C9.27409 2.06128 9.05343 1.97291 8.88532 1.81184C8.77278 1.69145 8.69548 1.54019 8.66243 1.37572C8.62938 1.21126 8.64197 1.04039 8.6987 0.883102C8.75376 0.734529 8.84572 0.603865 8.96519 0.504488C9.08465 0.405111 9.22732 0.340591 9.37859 0.317534L9.37905 0.318014ZM9.32033 0.701358C9.24152 0.737651 9.17305 0.794551 9.12157 0.866537C9.07009 0.938522 9.03734 1.02315 9.02652 1.1122C9.01569 1.20126 9.02715 1.29171 9.05977 1.3748C9.0924 1.45788 9.14509 1.53076 9.21273 1.58638C9.28065 1.6443 9.36276 1.68129 9.4498 1.69316C9.53683 1.70503 9.62532 1.69131 9.70526 1.65355C9.7852 1.61579 9.85342 1.5555 9.9022 1.47948C9.95098 1.40347 9.97838 1.31476 9.98132 1.22337C10.0153 0.869971 9.64314 0.543633 9.32033 0.701358Z" fill="white"/>
<path d="M14.2351 0.407326C14.4366 0.314146 14.6635 0.299253 14.8747 0.365348C15.0858 0.431443 15.2673 0.574152 15.3861 0.767612C15.2896 0.841057 15.1912 0.912206 15.0911 0.981061C14.9737 0.816611 14.8027 0.654722 14.59 0.683385C14.5003 0.697833 14.4158 0.736706 14.3451 0.796074C14.2745 0.855443 14.2201 0.9332 14.1875 1.02148C14.1549 1.10976 14.1453 1.20544 14.1596 1.29883C14.174 1.39223 14.2117 1.48003 14.269 1.55335C14.4426 1.76953 14.7402 1.72949 14.9608 1.62397C15.0143 1.72005 15.0717 1.81708 15.1279 1.9122C14.7363 2.19498 14.1021 2.08353 13.8751 1.62669C13.7677 1.41522 13.7454 1.16801 13.8129 0.939371C13.8804 0.710736 14.0323 0.519375 14.2352 0.407326H14.2351Z" fill="white"/>
<path d="M15.7725 0.666992L17.007 1.21142L16.8765 1.53904C16.7251 1.47371 16.575 1.4031 16.4224 1.34321C16.2658 1.75105 16.0884 2.15889 15.9278 2.56674C15.8115 2.5187 15.6981 2.46746 15.5845 2.41446C15.7607 2.00661 15.9185 1.59877 16.0908 1.19093C15.9394 1.12688 15.7894 1.05498 15.6394 0.996533L15.7725 0.666992Z" fill="white"/>
<path d="M6.81998 1.34029C7.1932 1.20435 7.53507 0.88217 7.95271 0.965116C8.03741 0.998212 8.11318 1.05212 8.17359 1.12227C8.234 1.19241 8.27725 1.27671 8.29968 1.368C8.3221 1.45929 8.32304 1.55487 8.3024 1.64662C8.28176 1.73836 8.24016 1.82356 8.18114 1.89497C8.37298 2.02003 8.57265 2.13965 8.76311 2.26326C8.6326 2.33116 8.50179 2.39921 8.37159 2.45365C8.19543 2.33948 8.01666 2.22948 7.84173 2.11242L7.61208 2.22932C7.6708 2.39377 7.74258 2.55421 7.81437 2.71322C7.70677 2.77039 7.5964 2.82531 7.48818 2.88039C7.26622 2.36943 7.02749 1.86103 6.81998 1.34029ZM7.29373 1.4953C7.34984 1.63124 7.40733 1.77536 7.46466 1.91531C7.65912 1.83236 7.8797 1.76031 7.9873 1.55502C7.92981 1.4503 7.88554 1.29257 7.74135 1.30346C7.58645 1.3503 7.43696 1.41474 7.29558 1.49562L7.29373 1.4953Z" fill="white"/>
<path d="M17.2964 1.71022C17.819 1.52527 18.4565 1.97267 18.4356 2.56257C18.4366 2.68352 18.4133 2.80336 18.3671 2.91433C18.3209 3.0253 18.2529 3.12493 18.1674 3.2068C18.0819 3.28867 17.9809 3.35095 17.8709 3.38962C17.7609 3.42828 17.6443 3.44247 17.5287 3.43126C17.3068 3.40995 17.1008 3.30194 16.9522 3.12894C16.8036 2.95595 16.7234 2.73078 16.7276 2.49868C16.7381 2.32374 16.7975 2.15581 16.8986 2.01568C16.9997 1.87555 17.138 1.76935 17.2964 1.71022ZM17.3955 2.08267C17.0915 2.23623 16.9714 2.72318 17.265 2.94992C17.5522 3.24359 18.0559 2.95809 18.0611 2.56658C18.0661 2.48182 18.0501 2.39717 18.0146 2.3207C17.9792 2.24423 17.9255 2.17851 17.8588 2.12982C17.792 2.08113 17.7143 2.0511 17.6332 2.04259C17.5521 2.03408 17.4703 2.04739 17.3955 2.08123V2.08267Z" fill="white"/>
<path d="M5.35449 2.31097C5.6298 2.14235 5.8699 1.89096 6.1818 1.79984C6.57331 1.69112 6.94777 2.16141 6.81465 2.5502C6.73779 2.80448 6.49753 2.94043 6.30185 3.0831C6.39193 3.21905 6.47939 3.35532 6.57331 3.49094C6.47155 3.56428 6.36979 3.63634 6.26926 3.70984C5.95353 3.2626 5.66777 2.77726 5.35449 2.31097ZM5.85699 2.38158C5.93923 2.51753 6.02608 2.6538 6.10893 2.78943C6.23944 2.69335 6.42344 2.62081 6.47954 2.44419C6.49907 2.3273 6.39869 2.24836 6.34904 2.16013C6.1572 2.14652 6.00717 2.28118 5.85838 2.38575L5.85699 2.38158Z" fill="white"/>
<path d="M10.9855 3.7792C11.5958 3.68941 12.2144 3.67983 12.8269 3.7507C12.994 3.77248 13.1884 3.76287 13.3202 3.88665C13.3661 3.93179 13.4015 3.98722 13.4239 4.04874C13.4462 4.11027 13.4548 4.17627 13.449 4.24176C13.4432 4.30725 13.4232 4.37051 13.3904 4.42675C13.3577 4.48299 13.3131 4.53074 13.2601 4.56639C13.1179 4.66695 12.9417 4.61122 12.7851 4.59633C12.2131 4.52707 11.635 4.53573 11.0652 4.62211C11.0099 4.63125 10.9535 4.62796 10.8996 4.61246C10.8457 4.59696 10.7956 4.56962 10.7527 4.53227C10.7098 4.49492 10.675 4.44842 10.6508 4.39592C10.6266 4.34341 10.6135 4.28612 10.6123 4.22788C10.6062 4.11723 10.6418 4.00846 10.7115 3.92473C10.7812 3.84099 10.8795 3.78889 10.9855 3.77952V3.7792Z" fill="white"/>
<path d="M11.6029 4.74806C12.2591 4.70647 12.9177 4.75813 13.5605 4.90162C13.6278 4.92789 13.6874 4.97183 13.7335 5.02916C13.7797 5.0865 13.8109 5.1553 13.824 5.22887C13.8371 5.30245 13.8318 5.37832 13.8085 5.44911C13.7852 5.5199 13.7447 5.58322 13.691 5.63292C13.6298 5.67949 13.5588 5.71019 13.484 5.72247C13.4091 5.73475 13.3325 5.72826 13.2606 5.70353C12.4384 5.53487 11.5925 5.53487 10.7704 5.70353C10.7002 5.72515 10.626 5.72878 10.5542 5.71412C10.4824 5.69945 10.4151 5.66692 10.3579 5.61931C10.3051 5.56801 10.2661 5.5032 10.2448 5.43131C10.2234 5.35943 10.2205 5.28298 10.2364 5.20957C10.2522 5.13617 10.2862 5.06836 10.3351 5.0129C10.3839 4.95744 10.4458 4.91626 10.5146 4.89345C10.872 4.80858 11.2365 4.75989 11.6029 4.74806Z" fill="white"/>
<path d="M10.8786 5.84588C11.9432 5.67218 13.0316 5.74645 14.0654 6.06333C14.243 6.13123 14.4569 6.17542 14.5549 6.36757C14.5819 6.41837 14.5986 6.47448 14.6037 6.53234C14.6089 6.5902 14.6024 6.64854 14.5847 6.70364C14.567 6.75875 14.5385 6.80942 14.501 6.85244C14.4635 6.89545 14.4178 6.92986 14.3669 6.95348C14.1372 7.07037 13.9128 6.88687 13.6905 6.83659C12.6185 6.53095 11.4881 6.52581 10.4136 6.82169C10.1656 6.8747 9.90847 7.09391 9.65668 6.93378C9.59565 6.89437 9.54549 6.83914 9.51108 6.7735C9.47667 6.70785 9.45921 6.63402 9.46038 6.55924C9.46156 6.48445 9.48134 6.41126 9.5178 6.34682C9.55425 6.28239 9.60613 6.2289 9.66836 6.1916C10.056 6.02347 10.4625 5.90699 10.8781 5.84492L10.8786 5.84588Z" fill="white"/>
<path d="M9.66625 7.58129C9.67638 7.51764 9.7004 7.45726 9.73647 7.4048C9.77254 7.35235 9.81968 7.30922 9.87428 7.27875C9.92887 7.24827 9.98945 7.23126 10.0514 7.22902C10.1133 7.22678 10.1748 7.23938 10.2313 7.26584C10.3171 7.3079 10.3878 7.37738 10.4331 7.46418C10.4785 7.55097 10.496 7.65056 10.4833 7.74846C10.4716 8.14878 10.5263 8.56415 10.3879 8.94477C10.2666 9.27568 10.0387 9.55243 9.74326 9.72779C9.24151 10.0819 8.82193 10.5482 8.5151 11.0926C8.20828 11.637 8.02194 12.2459 7.96967 12.8749C7.9545 13.1923 7.96236 13.5104 7.99319 13.8266C8.05173 14.3256 8.20806 14.8068 8.4525 15.2403C8.53474 15.3763 8.61436 15.5125 8.69399 15.6482C9.28586 16.5509 10.1973 17.1722 11.2283 17.3759C11.5249 17.4263 11.8244 17.4558 12.1248 17.4643C12.7287 17.4538 13.3218 17.296 13.8566 17.0035C14.1658 16.8223 14.4592 16.6133 14.7335 16.379C15.3612 15.818 15.7991 15.0617 15.9825 14.2216C16.172 13.3884 16.1166 12.5152 15.8237 11.7152C15.5307 10.9152 15.0136 10.2255 14.3395 9.73548C14.151 9.62137 13.9735 9.48842 13.8097 9.33852C13.6302 9.15067 13.5028 8.91583 13.4408 8.65878C13.3918 8.35621 13.376 8.04882 13.3937 7.74254C13.3815 7.64656 13.3981 7.54898 13.4414 7.46327C13.4846 7.37757 13.5524 7.30797 13.6352 7.26408C13.6918 7.23718 13.7536 7.22407 13.8158 7.22573C13.878 7.22738 13.939 7.24377 13.9942 7.27365C14.0494 7.30352 14.0974 7.3461 14.1344 7.39816C14.1715 7.45021 14.1967 7.51038 14.2081 7.57409C14.2473 7.85815 14.195 8.1491 14.2355 8.43317C14.2595 8.52737 14.3027 8.6151 14.3621 8.69038C14.4216 8.76567 14.4959 8.82676 14.58 8.86951C15.2129 9.27284 15.7492 9.82122 16.1481 10.4729C16.547 11.1247 16.798 11.8626 16.8819 12.6306C16.9658 13.3985 16.8805 14.1763 16.6325 14.9048C16.3844 15.6332 15.9802 16.2932 15.4505 16.8344C14.7095 17.6049 13.7472 18.1023 12.71 18.2509C11.6482 18.4078 10.5663 18.196 9.63167 17.6481C8.69704 17.1003 7.9617 16.2469 7.53937 15.22C7.11703 14.1931 7.03124 13.0499 7.29524 11.9671C7.55924 10.8843 8.15833 9.9223 8.99988 9.2298C9.22308 9.02595 9.55972 8.90218 9.64196 8.57456C9.68054 8.24614 9.63627 7.91163 9.66625 7.58129Z" fill="white"/>
<path d="M20.803 11.5742C21.0144 11.6136 21.2285 11.6368 21.4398 11.6762C21.3602 12.2663 21.2728 12.8549 21.1957 13.4435C21.4071 13.472 21.616 13.5089 21.8274 13.5319C21.8901 13.0166 21.9788 12.5042 22.0361 11.9877C22.2489 12.0037 22.4602 12.0394 22.6716 12.0746C22.6115 12.5939 22.5228 13.1092 22.4641 13.6278C22.6793 13.67 22.8974 13.6972 23.1166 13.7353C23.1986 13.1362 23.2821 12.5372 23.3671 11.9382C23.5785 11.9681 23.7886 12.0048 24 12.032C23.8838 12.8695 23.7637 13.7068 23.6529 14.546C22.588 14.421 21.5296 14.232 20.4687 14.0816C20.5669 13.245 20.7 12.4117 20.803 11.5742Z" fill="white"/>
<path d="M0 11.6624C1.13919 11.9628 2.27332 12.2782 3.41651 12.5813C3.45043 12.8097 3.48261 13.0362 3.51304 13.2611C2.50943 13.8918 1.52164 14.5498 0.511569 15.1643C0.466794 14.9087 0.437581 14.6503 0.424104 14.3908C0.632851 14.2454 0.856049 14.1185 1.07663 13.9829C1.00623 13.5233 0.960422 13.0585 0.871728 12.6031C0.632852 12.5011 0.369227 12.478 0.123896 12.3949C0.073784 12.1586 0.0418109 11.9085 0 11.6624ZM1.5281 12.7784C1.57514 13.0639 1.61418 13.3495 1.6586 13.6362C1.96926 13.4364 2.29023 13.2556 2.59305 13.0438C2.23412 12.9552 1.88318 12.8572 1.5281 12.7784Z" fill="white"/>
<path d="M19.8427 15.5534C20.024 15.2434 20.3229 14.9526 20.6909 14.9484C20.9266 14.9312 21.1616 14.9918 21.3624 15.1216C21.5632 15.2515 21.7196 15.444 21.8093 15.6717C21.8555 15.8489 21.8719 16.0331 21.8576 16.2162C22.3169 16.1644 22.7711 16.106 23.2344 16.0681C23.1039 16.3196 22.9731 16.5683 22.8429 16.8206C22.4644 16.8709 22.0834 16.9007 21.7037 16.9403C21.6241 16.9281 21.5823 17.0056 21.55 17.064C21.4782 17.1933 21.4195 17.3265 21.3543 17.4596C21.6584 17.6186 21.952 17.7958 22.2548 17.9585C22.1386 18.1774 22.0264 18.399 21.9155 18.6205C20.9668 18.0921 20.0168 17.5636 19.0732 17.0272C19.3375 16.5363 19.5776 16.0413 19.8427 15.5534ZM20.6909 15.7057C20.6105 15.7328 20.5364 15.777 20.4733 15.8355C20.4101 15.894 20.3593 15.9655 20.3241 16.0455C20.2131 16.2575 20.1061 16.4724 19.9979 16.686C20.2668 16.8301 20.5205 17 20.8018 17.1196C20.9248 16.8328 21.1137 16.5752 21.2038 16.2767C21.2939 15.9782 20.9806 15.665 20.691 15.7071L20.6909 15.7057Z" fill="white"/>
<path d="M2.597 15.7693C2.65469 15.6359 2.73974 15.5173 2.84617 15.4217C2.9526 15.3262 3.07782 15.2562 3.21303 15.2165C3.34824 15.1768 3.49015 15.1685 3.62879 15.192C3.76743 15.2156 3.89943 15.2706 4.0155 15.353C4.53814 15.7533 4.73059 16.4921 4.63928 17.1392C4.43053 17.1232 4.22163 17.1011 4.0155 17.0672L3.98153 17.0209C4.01934 16.643 3.98153 16.1861 3.67609 15.9333C3.63657 15.907 3.59099 15.8923 3.54412 15.8906C3.49726 15.889 3.45084 15.9006 3.40973 15.9241C3.36862 15.9476 3.33434 15.9822 3.31048 16.0242C3.28662 16.0663 3.27406 16.1142 3.27412 16.1631C3.30287 16.6321 3.52729 17.0793 3.45858 17.5562C3.37773 18.1639 2.63389 18.4873 2.13785 18.2154C1.7843 18.0414 1.57801 17.671 1.43844 17.3073C1.31336 16.9131 1.28379 16.4928 1.35236 16.0838C1.57156 16.1274 1.78953 16.1776 2.00488 16.2198C1.9345 16.5339 1.95723 16.8628 2.07006 17.1632C2.0998 17.2586 2.14837 17.3465 2.21265 17.4212C2.27692 17.4958 2.35549 17.5557 2.44328 17.5968C2.48361 17.6009 2.52428 17.5955 2.56239 17.5812C2.60049 17.5669 2.63508 17.544 2.66365 17.5141C2.69223 17.4842 2.71409 17.448 2.72765 17.4083C2.74122 17.3685 2.74616 17.3261 2.74211 17.2841C2.72105 16.7781 2.4522 16.2832 2.597 15.7693Z" fill="white"/>
<path d="M16.9715 19.1162C17.571 18.5439 18.1787 17.9838 18.7803 17.4155C18.9341 17.5776 19.0784 17.7492 19.2123 17.9294C18.7751 18.3087 18.364 18.7206 17.9373 19.1135C18.0835 19.2725 18.2179 19.4426 18.364 19.6001C18.7294 19.2549 19.0936 18.9068 19.4654 18.5683C19.652 18.6703 19.7552 18.8986 19.9157 19.044C19.5451 19.4016 19.1614 19.7441 18.7935 20.1029C18.9449 20.2674 19.0871 20.4392 19.2359 20.6059C19.6653 20.1981 20.0907 19.7902 20.5331 19.396L20.9586 19.9004C20.3427 20.4591 19.741 21.0373 19.1316 21.6065C18.4071 20.7814 17.6986 19.9399 16.9715 19.1162Z" fill="white"/>
<path d="M4.51402 18.2162C4.74404 18.079 5.00239 18.0014 5.26726 17.99C5.53213 17.9786 5.79573 18.0338 6.03582 18.1509C6.3271 18.2917 6.57685 18.5112 6.75909 18.7866C6.94132 19.062 7.04938 19.3833 7.07202 19.7169C6.84498 19.755 6.61394 19.7714 6.38691 19.8162C6.36576 19.4946 6.23363 19.1919 6.01491 18.9639C5.91106 18.8641 5.78569 18.7919 5.64939 18.7534C5.5131 18.7148 5.36989 18.711 5.23188 18.7422C5.01039 18.7988 4.81055 18.924 4.65868 19.1012C4.5068 19.2784 4.41002 19.4994 4.38106 19.735C4.36821 19.9015 4.39765 20.0686 4.46643 20.2195C4.53521 20.3704 4.6409 20.4997 4.77288 20.5946C5.00262 20.7576 5.27877 20.8343 5.55591 20.812C5.57159 21.0377 5.58379 21.2643 5.5925 21.4918C5.3636 21.5101 5.13336 21.4913 4.91 21.4361C4.1388 21.1995 3.54499 20.3662 3.67288 19.5166C3.71056 19.248 3.80572 18.9917 3.95132 18.7667C4.09691 18.5416 4.28922 18.3534 4.51402 18.2162Z" fill="white"/>
<path d="M7.74265 19.5471C8.49832 19.8475 9.246 20.1739 10.0023 20.4743C9.93311 20.6863 9.85087 20.893 9.77263 21.101C9.2337 20.8944 8.71199 20.6366 8.16353 20.4566C8.09697 20.6578 8.01611 20.8549 7.94955 21.0562C8.41147 21.2573 8.88 21.4422 9.34453 21.6353C9.26532 21.8374 9.19051 22.0413 9.12011 22.247C8.63728 22.0893 8.18044 21.8555 7.70161 21.6883C7.61891 21.8968 7.53928 22.1062 7.46273 22.3164C7.99951 22.5405 8.53629 22.7626 9.07307 22.9825C9 23.196 8.9195 23.4058 8.83158 23.6119C8.07929 23.2829 7.31486 22.985 6.56165 22.6601C6.94917 21.6144 7.35513 20.5871 7.74265 19.5471Z" fill="white"/>
<path d="M15.0586 20.0621C15.2842 19.9655 15.5267 19.9192 15.7706 19.9259C16.0144 19.9327 16.2542 19.9925 16.4745 20.1015C16.8128 20.2872 17.0771 20.5917 17.2205 20.9611C17.3638 21.3304 17.3769 21.7407 17.2575 22.1191C17.1762 22.3552 17.0475 22.5705 16.8801 22.7507C16.7127 22.931 16.5104 23.0721 16.2867 23.1646C15.8782 23.3359 15.4632 23.4936 15.056 23.673C14.6502 22.6371 14.273 21.5862 13.871 20.5464C14.2625 20.3816 14.6605 20.2226 15.0586 20.0621ZM14.7781 20.9036C15.0051 21.4977 15.2257 22.0957 15.4515 22.6913C15.4698 22.7824 15.5703 22.717 15.6238 22.7049C15.9136 22.5838 16.2398 22.4874 16.4304 22.2085C16.8376 21.664 16.4813 20.7702 15.8496 20.6343C15.4698 20.5432 15.1241 20.7824 14.7782 20.9034L14.7781 20.9036Z" fill="white"/>
<path d="M10.4807 20.6169H11.1515C11.6265 21.2958 12.105 21.9728 12.5871 22.648C12.6639 21.9806 12.5987 21.3048 12.6498 20.6347C12.882 20.6456 13.1157 20.6551 13.3506 20.6523C13.318 21.1268 13.3352 21.604 13.327 22.0784C13.327 22.72 13.2826 23.3594 13.2945 23.9999C13.0896 23.9999 12.8834 23.9999 12.6796 23.9891C12.2137 23.3216 11.7399 22.66 11.2728 21.9934C11.235 21.9431 11.1984 21.8928 11.1592 21.8438C11.137 22.5426 11.1592 23.2413 11.1121 23.9373H10.4441C10.4902 23.2766 10.4767 22.6132 10.4636 21.9518C10.4402 21.504 10.499 21.0615 10.4807 20.6169Z" fill="white"/>
</svg>
