<svg id="Layer_2" data-name="Layer 2" xmlns="http://www.w3.org/2000/svg" width="213.986" height="174.253" viewBox="0 0 213.986 174.253">
  <g id="Layer_1" data-name="Layer 1">
    <path id="Trazado_410" data-name="Trazado 410" d="M118.789,53.349a4.882,4.882,0,0,1,1.656-.161h9.109a2.309,2.309,0,0,1,2.547,2.139V81.136a8.4,8.4,0,0,1-.849,3.4c-1.265,3.073-2.819,6.011-4.355,8.957a9.61,9.61,0,0,1-1.842,2.742c-1.061.17-1.486-1.027-1.961-1.74-2.131-4.109-4.559-8.15-5.79-12.641-.085-8.719,0-17.446,0-26.174a2.292,2.292,0,0,1,1.486-2.326Zm.263,27.693c.17,2.36,1.528,4.389,2.386,6.537l.7.255a27.267,27.267,0,0,1,4.975,0l.756-.229a32.347,32.347,0,0,0,2.547-6.554C126.633,81,122.847,81.042,119.052,81.042Z" transform="translate(-17.711 -8.031)" fill="#ffab00"/>
    <path id="Trazado_411" data-name="Trazado 411" d="M110.283,101.277a3.2,3.2,0,1,1,5.391,3.09,4.067,4.067,0,0,1-2.547,1.036,11.377,11.377,0,0,0-.849,2.139,9.772,9.772,0,0,1,5.569,5.45c.849-.212,1.639-.475,2.445-.756a16.13,16.13,0,0,1,7.369-10.247,16.445,16.445,0,0,1,14.882-1.036,21.148,21.148,0,0,1,4.55,2.81,25.078,25.078,0,0,1-8.125,13.473V105.216c-1.927,0-3.922-.263-5.781.357-1.52.45-3.048.891-4.584,1.282.2,1.528.645,3.014.993,4.517a36,36,0,0,0,3.617-.849v10.57a25.138,25.138,0,0,1-11.325,2.9,17.378,17.378,0,0,1-1.927-10.553l-1.808.56a10.485,10.485,0,0,1-2.1,9.441,25.783,25.783,0,0,1-16.487-10.79l1.138-1.961-1.341-1.324L98,110.115a22.922,22.922,0,0,1-2.988-8.829,4.941,4.941,0,0,1,4.983,1,4.746,4.746,0,0,1,1.172,4.635c-.187.679-.773,1.248-.781,1.97.289.382.628.73.951,1.087a10.553,10.553,0,0,1,9.84-2.878l.849-2A3.328,3.328,0,0,1,110.283,101.277Z" transform="translate(-14.35 -14.945)" fill="#ffab00"/>
    <path id="Trazado_412" data-name="Trazado 412" d="M81.066,199.447c0-1.2,1.358-1.469,2.318-1.477l1.1,1.044c-.051.8,0,1.825-.849,2.233a1.74,1.74,0,0,1-2.564-1.8Z" transform="translate(-12.24 -29.9)" fill="#ffab00"/>
    <path id="Trazado_413" data-name="Trazado 413" d="M168.1,198.989c.331-.348.679-.679,1.019-1.019.959,0,2.318.289,2.326,1.494a1.7,1.7,0,0,1-1.876,1.953c-.7.068-1.087-.6-1.5-1.027Z" transform="translate(-25.384 -29.9)" fill="#ffab00"/>
    <path id="Trazado_414" data-name="Trazado 414" d="M120.743.119c.9-.042,1.8-.119,2.7-.119-1.18,2.173-2.4,4.338-3.472,6.579a24.938,24.938,0,0,0,.314,4.134l-2.42.178c-.272-1.7.212-3.744-1.087-5.094-1.231-1.664-2.487-3.353-3.778-5l2.717-.306c1.027,1.248,1.783,2.708,2.929,3.854C119.308,2.92,120.021,1.511,120.743.119Z" transform="translate(-17.067)" fill="#00acc1"/>
    <path id="Trazado_415" data-name="Trazado 415" d="M128.191,0c2.623.187,5.247.441,7.878.6,0,.7,0,1.418-.051,2.131-1.859,0-3.7-.433-5.552-.331-.144.62-.212,1.256-.3,1.885,1.647.2,3.3.331,4.958.416-.051.7-.11,1.418-.153,2.122-1.613-.11-3.209-.246-4.814-.382-.1.679-.212,1.358-.314,2.046,1.876.3,3.778.34,5.663.484q-.059,1.087-.153,2.173c-2.649-.272-5.3-.467-7.946-.645C127.622,7.021,128.03,3.532,128.191,0Z" transform="translate(-19.243)" fill="#00acc1"/>
    <path id="Trazado_416" data-name="Trazado 416" d="M104.84,2.325a5.442,5.442,0,0,1,4.712,1.409,5.578,5.578,0,0,1,.076,7.844,5.849,5.849,0,0,1-8,.076,5.527,5.527,0,0,1-1.214-5.8,5.612,5.612,0,0,1,4.423-3.532Zm-.382,2.394a3.252,3.252,0,0,0-.7,5.527,3.062,3.062,0,0,0,5-2.267c.221-2.207-2.2-4.245-4.3-3.26Z" transform="translate(-15.113 -0.338)" fill="#00acc1"/>
    <path id="Trazado_417" data-name="Trazado 417" d="M142.367,2.908a6,6,0,0,1,7.488,2.25q-.942.688-1.919,1.333c-.764-1.027-1.876-2.038-3.26-1.859a3.354,3.354,0,0,0-2.088,5.433c1.129,1.35,3.065,1.1,4.5.441.348.6.722,1.206,1.087,1.8-2.547,1.766-6.673,1.07-8.15-1.783a5.637,5.637,0,0,1,2.343-7.615Z" transform="translate(-21.049 -0.361)" fill="#00acc1"/>
    <path id="Trazado_418" data-name="Trazado 418" d="M154.463,4.91l8.031,3.4-.849,2.046c-.985-.408-1.961-.849-2.954-1.223-1.019,2.547-2.173,5.094-3.218,7.641-.756-.3-1.494-.62-2.233-.951,1.146-2.547,2.173-5.094,3.294-7.641-.985-.4-1.961-.849-2.937-1.214Z" transform="translate(-23.144 -0.742)" fill="#00acc1"/>
    <path id="Trazado_419" data-name="Trazado 419" d="M86.08,9.428c2.428-.849,4.652-2.861,7.369-2.343a3.655,3.655,0,0,1,1.486,5.807c1.248.781,2.547,1.528,3.786,2.3-.849.424-1.7.849-2.547,1.189-1.146-.713-2.309-1.4-3.447-2.131l-1.494.73c.382,1.027.849,2.029,1.316,3.022-.7.357-1.418.7-2.122,1.044C88.983,15.855,87.43,12.68,86.08,9.428Zm3.082.968c.365.849.739,1.749,1.112,2.623,1.265-.518,2.7-.968,3.4-2.25-.374-.654-.662-1.639-1.6-1.571a14.314,14.314,0,0,0-2.9,1.2Z" transform="translate(-13.001 -1.057)" fill="#00acc1"/>
    <path id="Trazado_420" data-name="Trazado 420" d="M165.7,12.533c3.4-1.155,7.547,1.639,7.411,5.323a5.4,5.4,0,0,1-5.9,5.425A5.739,5.739,0,0,1,162,17.457a5.6,5.6,0,0,1,3.7-4.924Zm.645,2.326c-1.978.959-2.759,4-.849,5.416,1.868,1.834,5.145.051,5.179-2.394a3.1,3.1,0,0,0-4.33-3.031Z" transform="translate(-24.467 -1.853)" fill="#00acc1"/>
    <path id="Trazado_421" data-name="Trazado 421" d="M74.85,16.414c1.791-1.053,3.353-2.623,5.382-3.192,2.547-.679,4.983,2.258,4.117,4.686-.5,1.588-2.063,2.437-3.336,3.328.586.849,1.155,1.7,1.766,2.547-.662.458-1.324.908-1.978,1.367C78.747,22.357,76.888,19.326,74.85,16.414Zm3.269.441c.535.849,1.1,1.7,1.639,2.547.849-.6,2.046-1.053,2.411-2.156.127-.73-.526-1.223-.849-1.774-1.248-.085-2.224.756-3.192,1.409Z" transform="translate(-11.305 -1.982)" fill="#00acc1"/>
    <path id="Trazado_422" data-name="Trazado 422" d="M117.567,27.716a47.865,47.865,0,0,1,11.979-.178c1.087.136,2.352.076,3.209.849a2.708,2.708,0,0,1-.391,4.245c-.925.628-2.071.28-3.09.187a43.119,43.119,0,0,0-11.189.161,2.547,2.547,0,0,1-2.946-2.462,2.657,2.657,0,0,1,2.428-2.8Z" transform="translate(-17.389 -4.115)" fill="#00acc1"/>
    <path id="Trazado_423" data-name="Trazado 423" d="M121.137,34.923a47.123,47.123,0,0,1,12.735.959,2.712,2.712,0,0,1,.849,4.567,3.1,3.1,0,0,1-2.8.441,41.922,41.922,0,0,0-16.2,0,2.954,2.954,0,0,1-2.683-.526,2.691,2.691,0,0,1,1.019-4.533,37.014,37.014,0,0,1,7.08-.908Z" transform="translate(-16.943 -5.269)" fill="#00acc1"/>
    <path id="Trazado_424" data-name="Trazado 424" d="M115.539,42.9a47.44,47.44,0,0,1,20.732,1.358c1.155.424,2.547.7,3.184,1.9a2.615,2.615,0,0,1-1.223,3.659c-1.494.73-2.954-.416-4.4-.73a41.031,41.031,0,0,0-21.318-.093c-1.613.331-3.286,1.7-4.924.7a2.7,2.7,0,0,1,.076-4.635,32.457,32.457,0,0,1,7.87-2.165Z" transform="translate(-16.057 -6.393)" fill="#00acc1"/>
    <path id="Trazado_425" data-name="Trazado 425" d="M104.971,55.375a2.632,2.632,0,0,1,3.676-1.97,2.9,2.9,0,0,1,1.639,3.014c-.076,2.5.28,5.094-.62,7.471a9.551,9.551,0,0,1-4.194,4.89A26.5,26.5,0,0,0,93.934,88.434a39.41,39.41,0,0,0,.153,5.943,22.922,22.922,0,0,0,2.988,8.829c.535.849,1.053,1.7,1.571,2.547a25.783,25.783,0,0,0,16.487,10.79,43.623,43.623,0,0,0,5.832.552,25.138,25.138,0,0,0,11.266-2.878,39.683,39.683,0,0,0,5.705-3.9,25.079,25.079,0,0,0,8.125-13.473,26.666,26.666,0,0,0-10.688-28.016,21.878,21.878,0,0,1-3.447-2.479,9.194,9.194,0,0,1-2.4-4.245,25.291,25.291,0,0,1-.306-5.722,2.92,2.92,0,0,1,1.571-2.988,2.666,2.666,0,0,1,3.727,1.936c.255,1.774-.085,3.591.178,5.365a4.245,4.245,0,0,0,2.241,2.725,31.743,31.743,0,0,1,5.663,49.741,31.259,31.259,0,0,1-17.828,8.846,31.743,31.743,0,0,1-24.136-56.337c1.452-1.273,3.642-2.046,4.177-4.092C105.064,59.527,104.776,57.438,104.971,55.375Z" transform="translate(-13.376 -8.028)" fill="#00acc1"/>
    <path id="Trazado_426" data-name="Trazado 426" d="M192.843,85.14c1.375.246,2.768.391,4.143.637-.518,3.685-1.087,7.361-1.588,11.037,1.375.178,2.734.408,4.109.552.408-3.218.985-6.418,1.358-9.644,1.384.1,2.759.323,4.134.543-.391,3.243-.968,6.461-1.35,9.7,1.4.263,2.819.433,4.245.671q.8-5.612,1.63-11.223c1.375.187,2.742.416,4.117.586-.756,5.23-1.537,10.459-2.258,15.7-6.928-.781-13.813-1.961-20.715-2.9C191.307,95.574,192.173,90.37,192.843,85.14Z" transform="translate(-28.798 -12.859)" fill="#00acc1"/>
    <path id="Trazado_427" data-name="Trazado 427" d="M33.82,85.79c7.411,1.876,14.789,3.846,22.226,5.739q.331,2.139.628,4.245c-6.529,3.939-12.955,8.048-19.526,11.886a38.51,38.51,0,0,1-.569-4.831c1.358-.908,2.81-1.7,4.245-2.547-.458-2.87-.756-5.773-1.333-8.617-1.554-.637-3.269-.781-4.865-1.3C34.3,88.889,34.092,87.327,33.82,85.79Zm9.941,6.97c.306,1.783.56,3.566.849,5.357,2.021-1.248,4.109-2.377,6.079-3.7C48.354,93.864,46.071,93.252,43.761,92.76Z" transform="translate(-5.108 -12.957)" fill="#00acc1"/>
    <path id="Trazado_428" data-name="Trazado 428" d="M184.979,113.735c1.18-1.936,3.124-3.752,5.518-3.778a7.31,7.31,0,0,1,7.276,4.517,9.907,9.907,0,0,1,.314,3.4c2.988-.323,5.943-.688,8.957-.925-.849,1.571-1.7,3.124-2.547,4.7-2.462.314-4.941.5-7.411.747-.518-.076-.79.408-1,.773-.467.807-.849,1.639-1.273,2.47,1.978.993,3.888,2.1,5.858,3.116-.756,1.367-1.486,2.751-2.207,4.134-6.172-3.3-12.352-6.6-18.491-9.95C181.693,119.873,183.255,116.782,184.979,113.735Zm5.518.951a3.973,3.973,0,0,0-2.386,2.122c-.722,1.324-1.418,2.666-2.122,4,1.749.9,3.4,1.961,5.23,2.708.8-1.791,2.029-3.4,2.615-5.264s-1.452-3.82-3.336-3.557Z" transform="translate(-27.181 -16.604)" fill="#00acc1"/>
    <path id="Trazado_429" data-name="Trazado 429" d="M52.242,115.342a6.256,6.256,0,0,1,9.228-2.6c3.4,2.5,4.652,7.114,4.058,11.155-1.358-.1-2.717-.238-4.058-.45l-.221-.289c.246-2.36,0-5.213-1.987-6.792a1.7,1.7,0,0,0-2.615,1.435c.187,2.929,1.647,5.722,1.2,8.7-.526,3.795-5.365,5.815-8.592,4.117-2.3-1.087-3.642-3.4-4.55-5.671a15.727,15.727,0,0,1-.56-7.641c1.426.272,2.844.586,4.245.849a9.958,9.958,0,0,0,.424,5.892,4.491,4.491,0,0,0,2.428,2.708,1.783,1.783,0,0,0,1.944-1.953C53.049,121.642,51.3,118.551,52.242,115.342Z" transform="translate(-6.636 -16.862)" fill="#00acc1"/>
    <path id="Trazado_430" data-name="Trazado 430" d="M163.87,138.731c3.9-3.574,7.853-7.072,11.767-10.621a35.19,35.19,0,0,1,2.81,3.209c-2.844,2.369-5.518,4.941-8.294,7.395.951.993,1.825,2.055,2.776,3.039,2.377-2.156,4.746-4.33,7.165-6.444,1.214.637,1.885,2.063,2.929,2.971-2.411,2.233-4.907,4.372-7.3,6.613.985,1.027,1.91,2.1,2.878,3.141,2.793-2.547,5.561-5.094,8.439-7.556l2.768,3.15c-4.007,3.489-7.921,7.1-11.886,10.655C173.209,149.13,168.6,143.875,163.87,138.731Z" transform="translate(-24.75 -19.349)" fill="#00acc1"/>
    <path id="Trazado_431" data-name="Trazado 431" d="M67.416,133.747a10.748,10.748,0,0,1,9.9-.408,11.69,11.69,0,0,1,6.741,9.78c-1.477.238-2.98.34-4.457.62a8.337,8.337,0,0,0-2.42-5.323,5.722,5.722,0,0,0-5.094-1.384,7.344,7.344,0,0,0-5.535,6.2A5.943,5.943,0,0,0,69.1,148.6a7.963,7.963,0,0,0,5.094,1.358q.153,2.114.238,4.245a14.433,14.433,0,0,1-4.44-.348c-5.017-1.477-8.88-6.681-8.048-11.987A11.308,11.308,0,0,1,67.416,133.747Z" transform="translate(-9.338 -19.986)" fill="#00acc1"/>
    <path id="Trazado_432" data-name="Trazado 432" d="M91.783,143.79c4.916,1.876,9.78,3.914,14.7,5.79-.45,1.324-.985,2.615-1.494,3.914-3.506-1.29-6.9-2.9-10.468-4.024-.433,1.256-.959,2.487-1.392,3.744,3.005,1.256,6.053,2.411,9.075,3.617q-.773,1.893-1.46,3.82c-3.141-.985-6.113-2.445-9.228-3.489q-.807,1.953-1.554,3.922,5.238,2.1,10.476,4.16-.713,2-1.571,3.931C93.973,167.12,89,165.26,84.1,163.231,86.621,156.7,89.262,150.285,91.783,143.79Z" transform="translate(-12.702 -21.717)" fill="#00acc1"/>
    <path id="Trazado_433" data-name="Trazado 433" d="M147.836,147.428a11.385,11.385,0,0,1,9.211.246,10.527,10.527,0,0,1,5.094,12.6,11.037,11.037,0,0,1-6.316,6.529c-2.657,1.07-5.357,2.055-8.006,3.175-2.64-6.469-5.094-13.032-7.709-19.526C142.657,149.423,145.246,148.43,147.836,147.428Zm-1.825,5.255c1.477,3.71,2.912,7.445,4.381,11.164.119.569.773.161,1.121.085,1.885-.756,4.007-1.358,5.247-3.1,2.649-3.4.331-8.982-3.778-9.831-2.471-.569-4.72.925-6.97,1.681Z" transform="translate(-21.161 -22.137)" fill="#00acc1"/>
    <path id="Trazado_434" data-name="Trazado 434" d="M114.088,151.66h4.364q4.635,6.359,9.339,12.684c.5-4.168.076-8.388.408-12.573,1.511.068,3.031.127,4.559.11-.212,2.963-.1,5.943-.153,8.906,0,4.007-.289,8-.212,12-1.333,0-2.674,0-4-.068-3.031-4.168-6.113-8.3-9.152-12.463-.246-.314-.484-.628-.739-.934-.144,4.364,0,8.727-.306,13.074H113.85c.3-4.126.212-8.269.127-12.4C113.825,157.2,114.207,154.436,114.088,151.66Z" transform="translate(-17.195 -22.906)" fill="#00acc1"/>
    <path id="Trazado_435" data-name="Trazado 435" d="M0,194.77H1.757c0,.484-.076.976-.119,1.477H.1C.068,195.755,0,195.262,0,194.77Z" transform="translate(0 -29.417)" fill="#00acc1"/>
    <path id="Trazado_436" data-name="Trazado 436" d="M61.31,196.3l1.256-2.021c.492.178.985.357,1.477.543-.492.509-1.01,1-1.52,1.494Z" transform="translate(-9.26 -29.343)" fill="#00acc1"/>
    <path id="Trazado_437" data-name="Trazado 437" d="M148.32,196.124a16.131,16.131,0,0,1,1.248-1.944,4.262,4.262,0,0,1,1.486.577c-.526.467-1.07.925-1.613,1.375Z" transform="translate(-22.401 -29.328)" fill="#00acc1"/>
    <path id="Trazado_438" data-name="Trazado 438" d="M238.88,196.314l1.273-2.054,1.435.586q-.739.73-1.494,1.452Z" transform="translate(-36.079 -29.34)" fill="#00acc1"/>
    <path id="Trazado_439" data-name="Trazado 439" d="M54.44,194.77h1.7v1.4H54.482Z" transform="translate(-8.222 -29.417)" fill="#00acc1"/>
    <path id="Trazado_440" data-name="Trazado 440" d="M91.984,195.688c.654-1.163,1.978-1.163,3.158-1.01v1.316H93.716l-.365,1.112c.611.059,1.223.1,1.834.153,0,.289-.059.849-.076,1.146H93.462V203.4H92v-5.009h-.8l-.093-1.18h.908Z" transform="translate(-13.761 -29.392)" fill="#00acc1"/>
    <path id="Trazado_441" data-name="Trazado 441" d="M141.45,194.78h1.639a14.563,14.563,0,0,1-.051,1.486h-1.384C141.586,195.756,141.526,195.264,141.45,194.78Z" transform="translate(-21.364 -29.418)" fill="#00acc1"/>
    <path id="Trazado_442" data-name="Trazado 442" d="M203.15,194.77h1.571c-.051,2.886,0,5.781,0,8.668h-1.537C203.175,200.543,203.2,197.656,203.15,194.77Z" transform="translate(-30.682 -29.417)" fill="#00acc1"/>
    <path id="Trazado_443" data-name="Trazado 443" d="M.14,197.52h1.5v6.342H.148C.157,201.739.165,199.625.14,197.52Z" transform="translate(-0.021 -29.832)" fill="#00acc1"/>
    <path id="Trazado_444" data-name="Trazado 444" d="M5.469,198.222c1.138-1.129,3.574-1.248,4.117.535.221,1.7,0,3.4.093,5.094l-1.435-.042a21.019,21.019,0,0,0-.178-4.449c-.365-.764-1.29-.484-1.961-.492-.951,1.494-.467,3.319-.569,4.983H4v-6.308H5.477Z" transform="translate(-0.604 -29.813)" fill="#00acc1"/>
    <path id="Trazado_445" data-name="Trazado 445" d="M14.17,198.262c1.078-1.214,3.549-1.3,4.109.45a37.82,37.82,0,0,1,.144,5.094H16.954a26.386,26.386,0,0,0-.11-4.134c-.187-1.282-2.292-1.18-2.547,0-.153,1.358,0,2.734-.059,4.109H12.65v-6.308h1.6C14.238,197.676,14.2,198.066,14.17,198.262Z" transform="translate(-1.911 -29.81)" fill="#00acc1"/>
    <path id="Trazado_446" data-name="Trazado 446" d="M23.231,197.543a3.506,3.506,0,0,1,4.245,1.571,3.4,3.4,0,1,1-6.393,2.046A3.3,3.3,0,0,1,23.231,197.543Zm.314,1.358a2.055,2.055,0,0,0,.246,3.634,1.9,1.9,0,0,0,2.5-2.139,1.927,1.927,0,0,0-2.734-1.494Z" transform="translate(-3.178 -29.804)" fill="#00acc1"/>
    <path id="Trazado_447" data-name="Trazado 447" d="M38.2,197.907c1.52-.526,3.591-.985,4.8.374.925,1.7.3,3.735.467,5.586-.586-.068-1.265.068-1.7-.458a2.887,2.887,0,0,1-2.87.374,1.975,1.975,0,0,1-.127-3.566c1.061-.492,2.25-.212,3.4-.178-.391-1.7-2.258-1.316-3.489-.959Zm.849,4.033c.408.441.8,1.078,1.511.9,1.019.085,1.579-.9,1.571-1.8q-1.138-.076-2.267-.076Z" transform="translate(-5.695 -29.812)" fill="#00acc1"/>
    <path id="Trazado_448" data-name="Trazado 448" d="M46.088,200.46a3.192,3.192,0,0,1,3.4-3.031,4.245,4.245,0,0,1,2.615.993l-1.07,1.07a2,2,0,0,0-2.776-.255,2.038,2.038,0,0,0,.908,3.4c.773.2,1.4-.365,2.029-.722l.934.968a3.846,3.846,0,0,1-3.311,1.112,3.3,3.3,0,0,1-2.725-3.532Z" transform="translate(-6.959 -29.817)" fill="#00acc1"/>
    <path id="Trazado_449" data-name="Trazado 449" d="M54.62,197.52h1.537v6.342H54.628C54.628,201.731,54.645,199.625,54.62,197.52Z" transform="translate(-8.249 -29.832)" fill="#00acc1"/>
    <path id="Trazado_450" data-name="Trazado 450" d="M60.461,197.493a3.481,3.481,0,0,1,4.05,1.613,3.4,3.4,0,0,1-1.851,4.737,3.438,3.438,0,0,1-4.423-2.038,3.345,3.345,0,0,1,2.224-4.313Zm.314,1.358a2,2,0,0,0-.492,3.311,1.825,1.825,0,0,0,3.039-1.087,1.927,1.927,0,0,0-2.547-2.224Z" transform="translate(-8.768 -29.805)" fill="#00acc1"/>
    <path id="Trazado_451" data-name="Trazado 451" d="M69.239,198.179a3,3,0,0,1,2.309-.781,2,2,0,0,1,1.859,1.944c.119,1.494,0,2.988.059,4.483H71.938a30.7,30.7,0,0,0-.093-4.16c-.2-1-1.3-.9-2.071-.773l-.484.8v4.134H67.77V197.5h1.537C69.281,197.661,69.256,198.009,69.239,198.179Z" transform="translate(-10.236 -29.812)" fill="#00acc1"/>
    <path id="Trazado_452" data-name="Trazado 452" d="M98.614,197.555a3.735,3.735,0,0,1,3.71.781,3.4,3.4,0,0,1-.144,4.754,3.472,3.472,0,0,1-5.2-.526,3.4,3.4,0,0,1,1.63-5.009Zm.365,1.341a2.012,2.012,0,0,0-.263,3.345,1.852,1.852,0,0,0,2.988-1.46,1.927,1.927,0,0,0-2.691-1.885Z" transform="translate(-14.566 -29.808)" fill="#00acc1"/>
    <path id="Trazado_453" data-name="Trazado 453" d="M107.782,198.124a9.855,9.855,0,0,1,2-.934c0,.535.042,1.078.068,1.622-.7.272-1.6.4-1.936,1.18a9.584,9.584,0,0,0-.357,3.8H106.11v-6.342h1.452v1.29Z" transform="translate(-16.026 -29.782)" fill="#00acc1"/>
    <path id="Trazado_454" data-name="Trazado 454" d="M113.684,197.982a2.547,2.547,0,0,1,3.549.28c1.1-1.18,3.574-1.324,4.16.433a38.4,38.4,0,0,1,.127,5.187,14.41,14.41,0,0,1-1.477-.11c-.263-1.418.306-2.895-.136-4.245a1.256,1.256,0,0,0-2.36.255,28.5,28.5,0,0,0-.093,4.084h-1.435a22.416,22.416,0,0,0-.161-4.338,1.256,1.256,0,0,0-2.36.255c-.1,1.358,0,2.717,0,4.075H111.91v-6.384C112.5,197.507,113.277,197.345,113.684,197.982Z" transform="translate(-16.902 -29.81)" fill="#00acc1"/>
    <path id="Trazado_455" data-name="Trazado 455" d="M125.234,197.915a6.206,6.206,0,0,1,3.4-.4,2.055,2.055,0,0,1,1.808,1.859c.059,1.52,0,3.048,0,4.576-.586-.1-1.172-.212-1.749-.348a3.073,3.073,0,0,1-3.4-.2,2.25,2.25,0,0,1,0-2.8c1.087-.951,2.632-.586,3.939-.577-.424-1.638-2.267-1.29-3.489-.917Zm.849,4.177.764.8c1.044.161,2.6-.509,2.19-1.783-1.078-.263-2.572-.348-2.946.976Z" transform="translate(-18.849 -29.819)" fill="#00acc1"/>
    <path id="Trazado_456" data-name="Trazado 456" d="M134.137,198.162a3.812,3.812,0,0,1,4.916.255c-.306.314-.594.654-.925.942-.773-.238-1.537-.849-2.377-.526a2.029,2.029,0,0,0-.467,3.4c.849.849,2.071.263,2.9-.3l.849.968a3.659,3.659,0,0,1-3.973.849,3.4,3.4,0,0,1-.925-5.586Z" transform="translate(-20.096 -29.812)" fill="#00acc1"/>
    <path id="Trazado_457" data-name="Trazado 457" d="M147.431,197.5c2.479-.891,5.315,1.7,4.245,4.245-.654,2.471-4.245,3.107-5.824,1.146a3.4,3.4,0,0,1,1.579-5.391Zm.314,1.341a2.024,2.024,0,0,0,0,3.617,1.885,1.885,0,0,0,2.666-1.7,1.961,1.961,0,0,0-2.666-1.919Z" transform="translate(-21.912 -29.802)" fill="#00acc1"/>
    <path id="Trazado_458" data-name="Trazado 458" d="M156.422,198.176c1.044-1.358,3.668-.968,3.948.849.136,1.6,0,3.218.059,4.831h-1.5c0-1.341.076-2.691,0-4.033s-2.267-1.341-2.547-.1a36.674,36.674,0,0,0-.076,4.151h-1.5v-6.359C155.4,197.505,156.286,197.284,156.422,198.176Z" transform="translate(-23.38 -29.809)" fill="#00acc1"/>
    <path id="Trazado_459" data-name="Trazado 459" d="M178.838,198.748a3.1,3.1,0,0,1,5.017-.255,5.094,5.094,0,0,1,.7,2.717c-1.6,0-3.2,0-4.8.051.365.586.739,1.324,1.5,1.435a3.915,3.915,0,0,0,2.173-.7l.849.849a3.837,3.837,0,0,1-3.812.976C178.422,203.248,177.742,200.5,178.838,198.748Zm.908,1.384h3.319a1.961,1.961,0,0,0-1.927-1.588,3.082,3.082,0,0,0-1.392,1.613Z" transform="translate(-26.932 -29.804)" fill="#00acc1"/>
    <path id="Trazado_460" data-name="Trazado 460" d="M194.906,197.908c1.554-.6,3.846-.985,4.916.637.654,1.7.17,3.54.323,5.3a4.805,4.805,0,0,1-1.808-.289,3.234,3.234,0,0,1-2.768.238,2,2,0,0,1-.441-3.4c1.07-.739,2.428-.424,3.634-.374-.2-.408-.382-.8-.577-1.189a8.3,8.3,0,0,0-2.853.212Zm1.358,3.294a.925.925,0,0,0,.628,1.647c1.044.187,1.7-.688,2.055-1.537-.866-.289-1.919-.628-2.717-.1Z" transform="translate(-29.357 -29.812)" fill="#00acc1"/>
    <path id="Trazado_461" data-name="Trazado 461" d="M211.261,197.5h1.409c0,2.088-.085,4.185.085,6.265l-1.469.11V203.1a3.447,3.447,0,0,1-2.046.934,2.114,2.114,0,0,1-2.105-1.842c-.068-1.571,0-3.15,0-4.72h1.409A13.771,13.771,0,0,0,208.8,202a1.358,1.358,0,0,0,2.386-.4,23.277,23.277,0,0,0,.076-4.109Z" transform="translate(-31.28 -29.825)" fill="#00acc1"/>
    <path id="Trazado_462" data-name="Trazado 462" d="M215.839,197.909c1.554-.586,3.795-.976,4.9.6.713,1.7.263,3.591.382,5.365a5.773,5.773,0,0,1-1.893-.323,3.175,3.175,0,0,1-2.742.246,1.987,1.987,0,0,1-.45-3.4c1.078-.79,2.487-.416,3.718-.424a8.292,8.292,0,0,0-.713-1.1,7,7,0,0,0-2.844.076Zm1.978,4.932a1.7,1.7,0,0,0,1.936-1.766,8.625,8.625,0,0,0-2.36,0,.942.942,0,0,0,.425,1.766Z" transform="translate(-32.513 -29.813)" fill="#00acc1"/>
    <path id="Trazado_463" data-name="Trazado 463" d="M223.672,201.15a3.235,3.235,0,0,1,3.014-3.752,3.829,3.829,0,0,1,2.886.985c-.272.348-.552.7-.849,1.044-.8-.365-1.7-1.036-2.589-.509a2.054,2.054,0,0,0,0,3.515c.849.569,1.834-.059,2.589-.518l.849.908a4.168,4.168,0,0,1-1.834,1.1,3.294,3.294,0,0,1-4.067-2.776Z" transform="translate(-33.776 -29.812)" fill="#00acc1"/>
    <path id="Trazado_464" data-name="Trazado 464" d="M232.159,197.49h1.554V203.8h-1.554C232.159,201.735,232.151,199.621,232.159,197.49Z" transform="translate(-35.063 -29.828)" fill="#00acc1"/>
    <path id="Trazado_465" data-name="Trazado 465" d="M238.086,197.493c2.08-.679,4.618,1.01,4.364,3.285.093,2.547-3.133,4.134-5.2,2.751C234.843,202.239,235.344,198.045,238.086,197.493Zm.323,1.333a1.987,1.987,0,0,0-.849,3.005,1.834,1.834,0,0,0,3.218-.323,1.961,1.961,0,0,0-2.369-2.683Z" transform="translate(-35.599 -29.805)" fill="#00acc1"/>
    <path id="Trazado_466" data-name="Trazado 466" d="M246.811,198.237c1.172-1.4,3.948-1.087,4.168.934.119,1.545,0,3.1.051,4.644h-1.486a21.7,21.7,0,0,0-.17-4.338c-.314-.925-1.384-.645-2.114-.6-.722,1.545-.331,3.277-.408,4.916H245.3v-6.367h1.588C246.871,197.694,246.828,198.059,246.811,198.237Z" transform="translate(-37.048 -29.811)" fill="#00acc1"/>
    <path id="Trazado_467" data-name="Trazado 467" d="M29.47,197.52h1.7c.5,1.477,1.036,2.946,1.613,4.389.611-1.435,1.129-2.895,1.647-4.364h1.7c-.849,2-1.63,4.033-2.454,6.036-.238.662-1.07.314-1.579.34C31.236,201.748,30.37,199.625,29.47,197.52Z" transform="translate(-4.451 -29.832)" fill="#00acc1"/>
    <path id="Trazado_468" data-name="Trazado 468" d="M141.59,197.52h1.5v6.367H141.6C141.607,201.731,141.615,199.625,141.59,197.52Z" transform="translate(-21.385 -29.832)" fill="#00acc1"/>
    <path id="Trazado_469" data-name="Trazado 469" d="M186.12,197.51h1.7c.543,1.494,1.07,3.005,1.639,4.491.594-1.486,1.121-2.988,1.655-4.491h1.639c-.849,2.105-1.7,4.245-2.547,6.333l-1.418.076Q187.453,200.719,186.12,197.51Z" transform="translate(-28.11 -29.831)" fill="#00acc1"/>
    <path id="Trazado_470" data-name="Trazado 470" d="M118.132,173.764c.306-4.355.161-8.719.306-13.074.255.306.492.62.739.934l-.6-.153c.17,4.16-.212,8.311-.178,12.471q-2.394.085-4.805,0c.17-4.245,0-8.422.323-12.624.085,4.134.178,8.277-.127,12.4Z" transform="translate(-17.156 -24.27)" fill="#00acc1"/>
    <path id="Trazado_471" data-name="Trazado 471" d="M232.158,194.758l1.622-.068c0,.526.076,1.053.119,1.588H232.15l1.435-.2c0-.314.076-.934.1-1.239Z" transform="translate(-35.062 -29.405)" fill="#00acc1"/>
    <path id="Trazado_472" data-name="Trazado 472" d="M232.158,194.77l1.528.042c0,.314-.076.934-.1,1.24l-1.435.2C232.158,195.891,232.158,195.144,232.158,194.77Z" transform="translate(-35.062 -29.417)" fill="#00acc1"/>
  </g>
</svg>
